{"extensionsUsed" : ["KHR_materials_pbrSpecularGlossiness"], "accessors" : [{"bufferView" : 0, "byteOffset" : 0, "componentType" : 5123, "count" : 3024, "type" : "SCALAR", "max" : [3023], "min" : [0]}, {"bufferView" : 1, "byteOffset" : 0, "componentType" : 5126, "count" : 3024, "type" : "VEC3", "max" : [10, 3, 12], "min" : [7, 0, 9], "name" : "POSITION"}, {"bufferView" : 1, "byteOffset" : 12, "componentType" : 5126, "count" : 3024, "type" : "VEC3", "max" : [1, 1, 1], "min" : [0.21223078668117523, 0.21223078668117523, 0.21223078668117523], "name" : "COLOR_0"}, {"bufferView" : 1, "byteOffset" : 24, "componentType" : 5126, "count" : 3024, "type" : "VEC2", "max" : [0.7734375, 0.23046875], "min" : [0.4453125, 0.01953125], "name" : "TEXCOORD_0"}, {"bufferView" : 0, "byteOffset" : 6048, "componentType" : 5123, "count" : 516, "type" : "SCALAR", "max" : [515], "min" : [0]}, {"bufferView" : 2, "byteOffset" : 0, "componentType" : 5126, "count" : 516, "type" : "VEC3", "max" : [11, 16, 13], "min" : [6, 14, 8], "name" : "POSITION"}, {"bufferView" : 2, "byteOffset" : 12, "componentType" : 5126, "count" : 516, "type" : "VEC3", "max" : [1, 1, 1], "min" : [0.21223078668117523, 0.21223078668117523, 0.15896086394786835], "name" : "COLOR_0"}, {"bufferView" : 2, "byteOffset" : 24, "componentType" : 5126, "count" : 516, "type" : "VEC2", "max" : [0.8358984589576721, 0.44919922947883606], "min" : [0.28910157084465027, 0.035175781697034836], "name" : "TEXCOORD_0"}], "asset" : {"generator" : "Aspose.3D 23.6.0", "version" : "2.0"}, "buffers" : [{"uri" : "data:application/octet-stream;base64,", "byteLength" : 120372}], "bufferViews" : [{"buffer" : 0, "byteOffset" : 0, "byteLength" : 7080, "target" : 34963}, {"buffer" : 0, "byteOffset" : 7084, "byteLength" : 96768, "byteStride" : 32, "target" : 34962}, {"buffer" : 0, "byteOffset" : 103856, "byteLength" : 16512, "byteStride" : 32, "target" : 34962}], "images" : [{"uri" : "data:image/png;base64,"}], "materials" : [{"name" : "", "extensions" : {"KHR_materials_pbrSpecularGlossiness" : {"diffuseFactor" : [1, 1, 1, 1], "diffuseTexture" : {"index" : 0, "texCoord" : 0}, "specularFactor" : [0.03999999910593033, 0.03999999910593033, 0.03999999910593033], "glossinessFactor" : 0}}, "pbrMetallicRoughness" : {"baseColorFactor" : [1, 1, 1, 1], "baseColorTexture" : {"index" : 0, "texCoord" : 0}, "metallicFactor" : 0, "roughnessFactor" : 1}, "emissiveFactor" : [0, 0, 0], "alphaMode" : "OPAQUE", "doubleSided" : false}, {"name" : "", "extensions" : {"KHR_materials_pbrSpecularGlossiness" : {"diffuseFactor" : [1, 1, 1, 1], "diffuseTexture" : {"index" : 0, "texCoord" : 0}, "specularFactor" : [0.03999999910593033, 0.03999999910593033, 0.03999999910593033], "glossinessFactor" : 0}}, "pbrMetallicRoughness" : {"baseColorFactor" : [1, 1, 1, 1], "baseColorTexture" : {"index" : 0, "texCoord" : 0}, "metallicFactor" : 0, "roughnessFactor" : 1}, "emissiveFactor" : [0, 0, 0], "alphaMode" : "OPAQUE", "doubleSided" : false}], "meshes" : [{"primitives" : [{"attributes" : {"POSITION" : 1, "COLOR_0" : 2, "TEXCOORD_0" : 3}, "indices" : 0, "material" : 0, "mode" : 4}]}, {"primitives" : [{"attributes" : {"POSITION" : 5, "COLOR_0" : 6, "TEXCOORD_0" : 7}, "indices" : 4, "material" : 1, "mode" : 4}]}], "nodes" : [{"matrix" : [1, 0, 0, 0, 0, 1, 0, 0, 0, 0, 1, 0, -8.5, -0.5, -10.5, 1], "mesh" : 0, "name" : "node_1"}, {"matrix" : [1, 0, 0, 0, 0, 1, 0, 0, 0, 0, 1, 0, -8.5, -16.5, -10.5, 1], "mesh" : 1, "name" : "node_2"}, {"children" : [0, 1], "name" : "root"}], "samplers" : [{"magFilter" : 9728, "minFilter" : 9984, "wrapS" : 10497, "wrapT" : 10497}], "scene" : 0, "scenes" : [{"nodes" : [2]}], "textures" : [{"sampler" : 0, "source" : 0, "name" : ""}]}